<?xml version="1.0" encoding="UTF-8"?>
<svg id="Capa_2" data-name="Capa 2" xmlns="http://www.w3.org/2000/svg" viewBox="0 0 1428.49 523.13">
  <defs>
    <style>
      .cls-1 {
        fill: #11332b;
        fill-rule: evenodd;
      }
    </style>
  </defs>
  <g id="LOGO">
    <g id="vv">
      <path class="cls-1" d="M511.1,278.7c-9.35-7.92-20.99-10.92-33.48-9.71l-94.29,9.16c-16.02,1.56-30.79,5.1-47.12,5.14l-133.29.31c-3.39,0-5.29,4.81-4.33,7.56,5.72,16.27,16.81,29.28,31.84,37.68,26.56,14.84,58.25,12.14,82.73-6.4,12.22-9.26,25.64-14.39,40.59-13.63,11.44.59,20.97,5.24,31.14,9.97l78.47,36.56c16.36,7.62,36.07,4.8,49.11-7.2,20.99-19.31,20.13-51.24-1.37-69.45ZM80.53,132.2l83.66,60.29c6.67,4.8,17.6,1.41,22.27-3.19,5.61-5.53,7.99-13.99,4.38-21.97l-38.92-85.99c-8.16-18.03-23.78-30.01-43.06-29.89-19.39.13-36.16,12.08-42.55,29.7-6.55,18.07-1.74,39.54,14.23,51.04ZM344.55,187.7c7.62,6.84,18.4,6.26,26.79.25l13.33-9.53,61.82-44.62c23.47-16.94,24.93-51.51,3.59-70.91-10.76-9.79-24.92-13.34-39.6-10.27-12.1,2.54-24.58,10.83-30.44,23.56l-38.73,84.06c-4.33,9.4-4.88,20.17,3.23,27.45ZM48.75,252.53l90.96-8.13c10.32-.92,18.33-7.65,19.7-17.28,1.48-10.35-3.77-18.72-13.63-23.31l-84.56-39.39c-17.21-8.01-37.54-.96-49.55,12.39-12.42,13.79-15.34,34.06-6.63,51.11,7.87,15.41,24.85,26.3,43.72,24.61ZM220.07,149.51c6.1,8.76,16.88,12.91,26.89,6.86,7.53-4.55,9.49-13.13,8.72-21.45l-8.94-96.4c-1.77-19.12-17.71-33.49-34.01-37.2-19.76-4.49-38.39,3.99-48.1,19.21-10.86,17.02-8.82,36.67,2.2,52.5l53.24,76.48ZM309.47,149.85l53.38-76.32c13.36-19.1,13.57-43.4-3.52-60.58-11.59-11.66-28.8-16.15-45.62-10.55-13.24,4.41-27.47,16.88-29.17,33.31l-10.71,103.13c-.53,5.07,2.01,11.27,5.54,14.71,9.61,9.34,23.23,6.14,30.11-3.7ZM157.13,290.68c-2.32-8.15-9.52-12.9-19.06-13.78l-85.51-7.92c-20.01-1.85-37.93,6.54-47.3,23.88-8.94,16.54-6.24,37.52,6.25,51.46,12.54,14,33.49,19.77,51.41,11.75,29.42-13.16,57.54-27.47,85.98-42.29,8.35-4.35,10.46-15.29,8.23-23.11ZM180.52,336c-5.78-3.4-14.85-3.83-20.8.12l-74.49,49.35c-17.04,11.29-25.42,30.16-20.48,50.34,4.33,17.69,20.24,31.91,38.74,33.73,19.83,1.94,37.74-8.01,46.59-26.47l37.13-77.46c5.13-10.7,4.58-22.98-6.68-29.61ZM441.58,383.94l-70.45-45.41c-8.59-5.54-19.55-4.91-26.35,1.82-6.96,6.89-7.53,16.83-3.22,25.7l38.92,80.12c12.23,25.16,46.54,31.52,67.86,13.54,12.75-10.75,18.03-25.2,16.44-41.06-1.44-14.34-10.26-26.36-23.2-34.71ZM372.87,226.05c1.05,6.9,7.38,15.17,15.92,16.14l91.73,10.35c13,1.47,25.17-4.14,33.87-13.02,15.21-15.53,17.72-38.69,6.16-56.85-10.93-17.16-33.27-26.66-53.52-18.16-28.86,12.12-56.16,26.19-84.24,40.22-7.76,3.88-11.18,12.98-9.91,21.32ZM233.26,372c-5.64.85-10.93,3.28-14.35,7.83l-55.34,73.81c-16.78,24.02-4.68,56.39,21.21,66.41,25.87,10.01,56.41-5.2,60.55-34.53l9.55-93.89c1.24-12.23-10.65-21.29-21.62-19.64ZM313.63,385.24c-6.23-8.27-15.25-13.22-25.63-9.89-9.1,2.91-14.33,11.4-13.45,21.13l7.41,82.08c1.75,19.43,12.64,35.67,30.06,41.87,18.8,6.7,38.84.58,50.69-14.3,11.72-14.72,14.46-36.42,2.77-51.95l-51.85-68.93ZM198.11,238.72c-.79,2.21.11,8.11,3.12,8.12l129.94.08c4.1,0,5.94-4.64,4.73-8.2-9.68-28.42-36.24-47.12-66.41-48.01-31.92-.93-60.66,18.12-71.39,48.01Z"/>
    </g>
    <g id="ffg">
      <path class="cls-1" d="M713.09,203.85h-73.86v-42.35h58.83v-20.65h-58.83v-40.48h71.35v-21.28h-95.35v146.04h97.85v-21.28ZM747.3,219.6c8.06,4.52,17.38,6.78,27.96,6.78,13.49,0,24.55-3.51,33.17-10.54,8.62-7.02,13.98-16.72,16.06-29.1h-22.95c-1.39,6.26-4.38,11.23-8.97,14.92-4.59,3.69-10.36,5.53-17.32,5.53-9.04,0-16.31-3.3-21.8-9.91-5.5-6.6-8.24-15.19-8.24-25.77s2.74-18.91,8.24-25.45c5.49-6.54,12.76-9.81,21.8-9.81,6.68,0,12.31,1.81,16.9,5.42,4.59,3.62,7.65,8.49,9.18,14.6h23.16c-2.09-12.1-7.37-21.66-15.86-28.69-8.49-7.02-19.4-10.54-32.76-10.54-10.71,0-20.13,2.26-28.27,6.78-8.14,4.52-14.43,10.88-18.88,19.09-4.45,8.21-6.68,17.73-6.68,28.58s2.19,20.45,6.57,28.79,10.6,14.78,18.67,19.3ZM862.78,219.6c8.27,4.52,17.77,6.78,28.48,6.78s20.2-2.26,28.48-6.78c8.27-4.52,14.67-10.92,19.19-19.19,4.52-8.27,6.78-17.84,6.78-28.69s-2.26-20.2-6.78-28.48c-4.52-8.27-10.92-14.71-19.19-19.3-8.28-4.59-17.77-6.89-28.48-6.89s-20.2,2.3-28.48,6.89c-8.28,4.59-14.68,11.03-19.19,19.3-4.52,8.28-6.78,17.77-6.78,28.48s2.26,20.41,6.78,28.69c4.52,8.28,10.92,14.68,19.19,19.19ZM868.52,146.17c5.7-6.6,13.28-9.91,22.74-9.91s17.07,3.31,22.85,9.91c5.77,6.61,8.66,15.13,8.66,25.56s-2.89,18.95-8.66,25.56c-5.77,6.61-13.39,9.91-22.85,9.91s-17.04-3.3-22.74-9.91c-5.7-6.6-8.55-15.13-8.55-25.56s2.85-18.95,8.55-25.56ZM986.4,79.09h-22.53v146.04h22.53V79.09ZM1008.51,225.13h22.53v-106.82h-22.53v106.82ZM1019.78,102.66c3.89,0,7.16-1.28,9.81-3.86,2.64-2.57,3.96-5.81,3.96-9.7s-1.32-7.13-3.96-9.7c-2.64-2.57-5.91-3.86-9.81-3.86s-7.17,1.29-9.81,3.86c-2.64,2.58-3.96,5.81-3.96,9.7s1.32,7.13,3.96,9.7c2.64,2.58,5.91,3.86,9.81,3.86ZM1109.49,225.13l39.43-106.82h-23.78l-29,82.62-29.42-82.62h-24.2l39.43,106.82h27.54ZM1171.66,102.66c3.89,0,7.16-1.28,9.81-3.86,2.64-2.57,3.96-5.81,3.96-9.7s-1.32-7.13-3.96-9.7c-2.64-2.57-5.91-3.86-9.81-3.86s-7.17,1.29-9.81,3.86c-2.64,2.58-3.96,5.81-3.96,9.7s1.32,7.13,3.96,9.7c2.64,2.58,5.91,3.86,9.81,3.86ZM1160.4,225.13h22.53v-106.82h-22.53v106.82ZM1261.38,117.06c-14.74,0-26.15,5.08-34.22,15.23l-2.5-13.98h-19.61v106.82h22.53v-53.83c0-10.85,2.54-19.37,7.61-25.56,5.08-6.19,12.06-9.28,20.97-9.28,8.35,0,14.67,2.64,18.99,7.93,4.31,5.29,6.47,13.01,6.47,23.16v57.58h22.74v-58.83c0-17.24-4-29.76-12-37.55-8-7.79-18.33-11.68-30.98-11.68ZM1408.88,118.31l-2.5,16.69c-3.62-5.56-8.35-9.94-14.19-13.14-5.84-3.2-12.8-4.8-20.86-4.8-9.6,0-18.22,2.26-25.87,6.78-7.65,4.52-13.67,10.88-18.05,19.09-4.38,8.21-6.57,17.67-6.57,28.37s2.15,20.76,6.47,28.9c4.31,8.14,10.29,14.4,17.94,18.78,7.65,4.38,16.34,6.57,26.08,6.57,15.44,0,27.05-5.84,34.84-17.53v11.89c0,19.89-10.22,29.83-30.67,29.83-7.93,0-14.4-1.64-19.4-4.9-5.01-3.27-8.21-7.9-9.6-13.87h-22.95c.97,11.82,5.98,20.97,15.02,27.44,9.04,6.47,20.79,9.7,35.26,9.7,18.64,0,32.41-4.14,41.31-12.41,8.9-8.28,13.35-19.92,13.35-34.95v-102.44h-19.61ZM1397.61,196.86c-5.7,6.47-13.22,9.7-22.53,9.7s-16.83-3.27-22.53-9.81c-5.7-6.54-8.55-15.02-8.55-25.45s2.85-18.91,8.55-25.45c5.7-6.54,13.21-9.81,22.53-9.81s16.83,3.31,22.53,9.91c5.7,6.61,8.55,15.2,8.55,25.77s-2.85,18.67-8.55,25.14ZM699.32,328.45c-6.82-2.78-14.95-5.01-24.41-6.68-9.32-1.67-16.48-3.2-21.49-4.59-5.01-1.39-9.01-3.48-12-6.26-2.99-2.78-4.49-6.54-4.49-11.27,0-6.68,2.54-11.86,7.62-15.54,5.08-3.68,11.86-5.53,20.34-5.53s15.99,2.29,21.7,6.88c5.7,4.59,8.97,10.64,9.81,18.15h23.58c-.42-8.76-2.99-16.55-7.72-23.37-4.73-6.81-11.2-12.17-19.4-16.06-8.21-3.89-17.53-5.84-27.96-5.84s-19.16,1.81-27.02,5.42c-7.86,3.62-13.98,8.69-18.36,15.23-4.38,6.54-6.57,13.98-6.57,22.32,0,9.04,2.12,16.35,6.36,21.91,4.24,5.56,9.73,9.7,16.48,12.41,6.74,2.71,14.85,4.9,24.31,6.57,9.32,1.67,16.55,3.27,21.7,4.8,5.14,1.53,9.21,3.72,12.21,6.57,2.99,2.85,4.49,6.71,4.49,11.58,0,6.82-2.75,12.14-8.24,15.96-5.5,3.83-12.69,5.74-21.59,5.74-10.15,0-18.4-2.61-24.72-7.82-6.33-5.22-9.84-12.13-10.54-20.76l-23.58-.42c.14,9.6,2.68,18.12,7.62,25.56,4.94,7.44,11.79,13.25,20.55,17.42s18.91,6.26,30.46,6.26c10.43,0,19.75-1.91,27.96-5.74,8.21-3.82,14.6-9.14,19.19-15.96,4.59-6.81,6.89-14.53,6.89-23.16s-2.16-16.06-6.47-21.49c-4.31-5.42-9.88-9.53-16.69-12.31ZM806.14,352.03c0,10.99-2.44,19.65-7.3,25.97-4.87,6.33-11.62,9.49-20.24,9.49s-14.4-2.71-18.57-8.14c-4.17-5.42-6.26-13.35-6.26-23.78v-56.54h-22.53v58.83c0,17.25,3.89,29.77,11.68,37.55,7.79,7.79,17.94,11.68,30.46,11.68,13.91,0,24.9-4.94,32.96-14.81l2.5,13.56h19.82v-106.82h-22.53v52.99ZM914.63,299.04l-29,82.41-29.83-82.41h-23.99l41.73,107.66-4.38,10.22c-1.81,4.59-3.55,7.54-5.22,8.87-1.67,1.32-4.66,1.98-8.97,1.98h-15.86v19.82h24.2c5.14,0,9.25-.87,12.31-2.61,3.06-1.74,5.63-4.31,7.72-7.72,2.09-3.41,4.38-8.31,6.89-14.71l48.4-123.51h-23.99ZM1028.12,378.73v-42.14c0-12.52-3.9-22.12-11.68-28.79-7.79-6.68-18.85-10.01-33.17-10.01-13.49,0-24.41,2.96-32.76,8.87-8.35,5.91-13.08,14.22-14.19,24.93h22.12c.83-4.73,3.37-8.52,7.61-11.37,4.24-2.85,9.63-4.28,16.17-4.28,7.37,0,13.14,1.7,17.32,5.11,4.17,3.41,6.26,8.1,6.26,14.08v6.47h-26.91c-14.89,0-26.22,2.96-34.01,8.87-7.79,5.91-11.68,14.36-11.68,25.35,0,9.74,3.62,17.39,10.85,22.95,7.23,5.56,16.83,8.35,28.79,8.35,15.44,0,27.19-6.12,35.26-18.36,0,5.56,1.53,9.81,4.59,12.73,3.06,2.92,8.06,4.38,15.02,4.38h11.89v-19.61h-4.38c-4.73,0-7.09-2.5-7.09-7.51ZM1005.8,362.04c-.14,8.35-2.82,15.02-8.03,20.03-5.22,5.01-12.49,7.51-21.8,7.51-6.12,0-10.95-1.39-14.5-4.17-3.55-2.78-5.32-6.47-5.32-11.06,0-5.28,1.88-9.28,5.63-12,3.76-2.71,9.11-4.07,16.06-4.07h27.96v3.76ZM1126.81,304.36c-7.65-4.38-16.35-6.57-26.08-6.57-14.6,0-26.22,5.7-34.84,17.11l-2.71-15.86h-19.61v148.55h22.53v-56.75c3.48,5.01,8.14,8.97,13.98,11.89,5.84,2.92,12.73,4.38,20.66,4.38,9.73,0,18.43-2.26,26.08-6.78,7.65-4.52,13.63-10.92,17.94-19.19,4.31-8.27,6.47-17.84,6.47-28.69s-2.16-20.83-6.47-29.1c-4.31-8.27-10.29-14.6-17.94-18.99ZM1119.61,378.11c-5.77,6.68-13.32,10.01-22.64,10.01s-16.83-3.34-22.53-10.01c-5.71-6.68-8.55-15.37-8.55-26.08s2.85-18.88,8.55-25.35c5.7-6.47,13.21-9.7,22.53-9.7s16.86,3.27,22.64,9.81c5.77,6.54,8.66,15.09,8.66,25.66s-2.89,18.99-8.66,25.66ZM1251.78,378.73v-42.14c0-12.52-3.9-22.12-11.68-28.79-7.79-6.68-18.85-10.01-33.17-10.01-13.49,0-24.41,2.96-32.76,8.87-8.35,5.91-13.08,14.22-14.19,24.93h22.12c.83-4.73,3.37-8.52,7.62-11.37,4.24-2.85,9.63-4.28,16.17-4.28,7.37,0,13.14,1.7,17.32,5.11,4.17,3.41,6.26,8.1,6.26,14.08v6.47h-26.91c-14.88,0-26.22,2.96-34.01,8.87-7.79,5.91-11.68,14.36-11.68,25.35,0,9.74,3.62,17.39,10.85,22.95,7.23,5.56,16.83,8.35,28.79,8.35,15.44,0,27.19-6.12,35.26-18.36,0,5.56,1.53,9.81,4.59,12.73,3.06,2.92,8.07,4.38,15.02,4.38h11.89v-19.61h-4.38c-4.73,0-7.09-2.5-7.09-7.51ZM1229.46,362.04c-.14,8.35-2.82,15.02-8.03,20.03-5.22,5.01-12.49,7.51-21.8,7.51-6.12,0-10.95-1.39-14.5-4.17-3.55-2.78-5.32-6.47-5.32-11.06,0-5.28,1.88-9.28,5.63-12,3.76-2.71,9.11-4.07,16.06-4.07h27.96v3.76Z"/>
    </g>
  </g>
</svg>